<svg width="826" height="826" viewBox="0 0 826 826" fill="none" xmlns="http://www.w3.org/2000/svg">
<rect width="826" height="826" fill="url(#paint0_linear_75_650)"/>
<path d="M196.369 500.085C190.196 544.83 197.973 567.206 243.366 567.206C253.428 567.206 263.806 565.57 263.806 553.264C263.806 544.522 255.364 543.218 248.559 543.218C246.615 543.218 244.338 543.542 242.402 543.542C219.045 543.542 217.417 531.211 221.962 497.817L231.043 433.296H264.77C271.908 433.296 278.397 427.455 278.397 419.67C278.397 413.853 274.176 409.308 268.335 409.308H234.625L240.773 364.563C241.746 357.742 237.849 352.241 229.747 352.241C221.646 352.241 216.453 357.742 215.497 364.563L196.369 500.085Z" fill="white"/>
<path d="M351.675 347.38C351.675 339.586 346.166 333.753 338.048 333.753C328.643 333.753 320.209 341.53 320.209 350.936C320.209 358.722 325.726 364.871 333.835 364.871C343.233 364.871 351.675 356.769 351.675 347.38ZM297.2 535.424C292.98 564.614 304.654 568.494 312.763 568.494C319.893 568.494 326.382 562.661 326.382 555.864C326.382 553.587 325.394 551.643 324.762 550.671C321.505 546.79 321.505 542.569 322.493 535.424L339.677 412.864C340.632 406.059 335.788 400.226 328.643 400.226C321.505 400.226 315.356 406.059 314.376 412.864L297.2 535.424Z" fill="white"/>
<path d="M431.11 568.178C472.29 568.178 488.834 541.265 494.334 502.678L500.508 460.533C505.677 424.214 491.312 401.781 457.367 399.238C440.394 397.982 423.082 402.365 408.078 413.512C395.439 422.918 387.338 436.61 387.014 446.267L362.045 623.293C361.073 630.106 364.961 635.623 373.071 635.623C381.181 635.623 386.366 630.106 387.338 623.293L396.087 562.013C407.105 565.902 420.084 568.178 431.11 568.178ZM410.613 460.396C411.278 456.507 412.444 445.546 412.793 444.922C419.695 432.057 437.915 423.736 448.942 423.736C470.346 423.736 478.779 435.249 475.198 460.533L469.05 502.678C464.82 532.84 454.459 546.134 430.786 546.134C422.685 546.134 408.726 544.19 399.328 539.321L410.613 460.396Z" fill="white"/>
<path d="M533.578 452.432C533.578 489.075 572.481 491.66 589.98 502.03C595.182 504.954 599.386 509.491 599.386 518.573C599.386 537.701 585.776 546.134 565.992 546.134C553.021 546.134 543.3 542.238 534.534 538.673C533.578 538.341 533.237 538.025 531.301 538.025C522.859 538.025 517.683 545.162 517.683 550.995C517.683 564.938 546.856 568.495 562.743 568.495C602.959 568.495 624.355 546.791 624.355 514.352C624.355 478.689 590.961 475.449 571.501 465.063C562.743 460.534 558.862 455.341 558.862 447.563C558.862 431.036 568.908 421.622 591.285 421.622C602.959 421.622 608.46 424.215 614.949 427.455C616.902 428.444 618.198 429.076 620.458 429.076C627.92 429.076 634.085 422.919 634.085 416.105C634.085 403.467 609.448 399.238 593.229 399.238C554.974 399.238 533.578 421.622 533.578 452.432Z" fill="white"/>
<path d="M663.616 566.615H677.915C723.056 566.615 759.991 529.68 759.991 484.538V272.076C759.991 226.935 723.056 190 677.915 190H148.076C102.935 190 66 226.935 66 272.076V484.538C66 529.68 102.935 566.615 148.076 566.615H163.177V535.213L148.076 535.343C120.061 535.343 97.2717 512.553 97.2717 484.538V272.076C97.2717 244.061 120.061 221.272 148.076 221.272H677.915C705.93 221.272 728.719 244.061 728.719 272.076V484.538C728.719 512.553 705.93 535.343 677.915 535.343L663.616 535.213V566.615Z" fill="white"/>
<defs>
<linearGradient id="paint0_linear_75_650" x1="59" y1="86.5" x2="753.5" y2="791" gradientUnits="userSpaceOnUse">
<stop stop-color="#3D81F6"/>
<stop offset="1" stop-color="#8A5CF6"/>
</linearGradient>
</defs>
</svg>
